<mxfile host="app.diagrams.net" modified="2024-03-18T22:51:52.361Z" agent="Mozilla/5.0 (Windows NT 10.0; Win64; x64) AppleWebKit/537.36 (KHTML, like Gecko) Chrome/122.0.0.0 Safari/537.36 Edg/122.0.0.0" etag="FF3b9KUD4pAyKFrINTM0" version="24.0.7" type="github">
  <diagram name="Page-1" id="c4acf3e9-155e-7222-9cf6-157b1a14988f">
    <mxGraphModel dx="1626" dy="751" grid="1" gridSize="10" guides="1" tooltips="1" connect="1" arrows="1" fold="1" page="1" pageScale="1" pageWidth="850" pageHeight="1100" background="none" math="0" shadow="0">
      <root>
        <mxCell id="0" />
        <mxCell id="1" parent="0" />
        <mxCell id="NBHjp8xVbYWv-o9BaZYt-9" value="&lt;i&gt;Field&lt;/i&gt;" style="swimlane;fontStyle=1;align=center;verticalAlign=top;childLayout=stackLayout;horizontal=1;startSize=26;horizontalStack=0;resizeParent=1;resizeParentMax=0;resizeLast=0;collapsible=1;marginBottom=0;whiteSpace=wrap;html=1;" parent="1" vertex="1">
          <mxGeometry x="320" y="60" width="160" height="100" as="geometry" />
        </mxCell>
        <mxCell id="NBHjp8xVbYWv-o9BaZYt-10" value="- value: Any" style="text;strokeColor=none;fillColor=none;align=left;verticalAlign=top;spacingLeft=4;spacingRight=4;overflow=hidden;rotatable=0;points=[[0,0.5],[1,0.5]];portConstraint=eastwest;whiteSpace=wrap;html=1;" parent="NBHjp8xVbYWv-o9BaZYt-9" vertex="1">
          <mxGeometry y="26" width="160" height="26" as="geometry" />
        </mxCell>
        <mxCell id="NBHjp8xVbYWv-o9BaZYt-11" value="" style="line;strokeWidth=1;fillColor=none;align=left;verticalAlign=middle;spacingTop=-1;spacingLeft=3;spacingRight=3;rotatable=0;labelPosition=right;points=[];portConstraint=eastwest;strokeColor=inherit;" parent="NBHjp8xVbYWv-o9BaZYt-9" vertex="1">
          <mxGeometry y="52" width="160" height="8" as="geometry" />
        </mxCell>
        <mxCell id="NBHjp8xVbYWv-o9BaZYt-12" value="+ __init__(value: None)&lt;div&gt;+ __str__(): str&lt;/div&gt;" style="text;strokeColor=none;fillColor=none;align=left;verticalAlign=top;spacingLeft=4;spacingRight=4;overflow=hidden;rotatable=0;points=[[0,0.5],[1,0.5]];portConstraint=eastwest;whiteSpace=wrap;html=1;" parent="NBHjp8xVbYWv-o9BaZYt-9" vertex="1">
          <mxGeometry y="60" width="160" height="40" as="geometry" />
        </mxCell>
        <mxCell id="NBHjp8xVbYWv-o9BaZYt-17" value="" style="endArrow=open;endFill=1;endSize=12;html=1;rounded=0;entryX=-0.003;entryY=0.999;entryDx=0;entryDy=0;entryPerimeter=0;" parent="1" target="NBHjp8xVbYWv-o9BaZYt-12" edge="1">
          <mxGeometry width="160" relative="1" as="geometry">
            <mxPoint x="119.74000000000001" y="240" as="sourcePoint" />
            <mxPoint x="119.5" y="160" as="targetPoint" />
          </mxGeometry>
        </mxCell>
        <mxCell id="NBHjp8xVbYWv-o9BaZYt-40" value="Name" style="swimlane;fontStyle=1;align=center;verticalAlign=top;childLayout=stackLayout;horizontal=1;startSize=26;horizontalStack=0;resizeParent=1;resizeParentMax=0;resizeLast=0;collapsible=1;marginBottom=0;whiteSpace=wrap;html=1;" parent="1" vertex="1">
          <mxGeometry x="40" y="140" width="120" height="60" as="geometry">
            <mxRectangle x="40" y="240" width="70" height="30" as="alternateBounds" />
          </mxGeometry>
        </mxCell>
        <mxCell id="NBHjp8xVbYWv-o9BaZYt-42" value="" style="line;strokeWidth=1;fillColor=none;align=left;verticalAlign=middle;spacingTop=-1;spacingLeft=3;spacingRight=3;rotatable=0;labelPosition=right;points=[];portConstraint=eastwest;strokeColor=inherit;" parent="NBHjp8xVbYWv-o9BaZYt-40" vertex="1">
          <mxGeometry y="26" width="120" height="8" as="geometry" />
        </mxCell>
        <mxCell id="NBHjp8xVbYWv-o9BaZYt-43" value="+__init__(name: str)" style="text;strokeColor=none;fillColor=none;align=left;verticalAlign=top;spacingLeft=4;spacingRight=4;overflow=hidden;rotatable=0;points=[[0,0.5],[1,0.5]];portConstraint=eastwest;whiteSpace=wrap;html=1;" parent="NBHjp8xVbYWv-o9BaZYt-40" vertex="1">
          <mxGeometry y="34" width="120" height="26" as="geometry" />
        </mxCell>
        <mxCell id="NBHjp8xVbYWv-o9BaZYt-48" value="Phone" style="swimlane;fontStyle=1;align=center;verticalAlign=top;childLayout=stackLayout;horizontal=1;startSize=26;horizontalStack=0;resizeParent=1;resizeParentMax=0;resizeLast=0;collapsible=1;marginBottom=0;whiteSpace=wrap;html=1;" parent="1" vertex="1">
          <mxGeometry x="40" y="240" width="130" height="60" as="geometry" />
        </mxCell>
        <mxCell id="NBHjp8xVbYWv-o9BaZYt-50" value="" style="line;strokeWidth=1;fillColor=none;align=left;verticalAlign=middle;spacingTop=-1;spacingLeft=3;spacingRight=3;rotatable=0;labelPosition=right;points=[];portConstraint=eastwest;strokeColor=inherit;" parent="NBHjp8xVbYWv-o9BaZYt-48" vertex="1">
          <mxGeometry y="26" width="130" height="8" as="geometry" />
        </mxCell>
        <mxCell id="NBHjp8xVbYWv-o9BaZYt-51" value="+__init__(phone: str)" style="text;strokeColor=none;fillColor=none;align=left;verticalAlign=top;spacingLeft=4;spacingRight=4;overflow=hidden;rotatable=0;points=[[0,0.5],[1,0.5]];portConstraint=eastwest;whiteSpace=wrap;html=1;" parent="NBHjp8xVbYWv-o9BaZYt-48" vertex="1">
          <mxGeometry y="34" width="130" height="26" as="geometry" />
        </mxCell>
        <mxCell id="NBHjp8xVbYWv-o9BaZYt-52" value="Birthday" style="swimlane;fontStyle=1;align=center;verticalAlign=top;childLayout=stackLayout;horizontal=1;startSize=26;horizontalStack=0;resizeParent=1;resizeParentMax=0;resizeLast=0;collapsible=1;marginBottom=0;whiteSpace=wrap;html=1;" parent="1" vertex="1">
          <mxGeometry x="190" y="240" width="130" height="60" as="geometry" />
        </mxCell>
        <mxCell id="NBHjp8xVbYWv-o9BaZYt-54" value="" style="line;strokeWidth=1;fillColor=none;align=left;verticalAlign=middle;spacingTop=-1;spacingLeft=3;spacingRight=3;rotatable=0;labelPosition=right;points=[];portConstraint=eastwest;strokeColor=inherit;" parent="NBHjp8xVbYWv-o9BaZYt-52" vertex="1">
          <mxGeometry y="26" width="130" height="8" as="geometry" />
        </mxCell>
        <mxCell id="NBHjp8xVbYWv-o9BaZYt-55" value="+__init__(birthday: str)" style="text;strokeColor=none;fillColor=none;align=left;verticalAlign=top;spacingLeft=4;spacingRight=4;overflow=hidden;rotatable=0;points=[[0,0.5],[1,0.5]];portConstraint=eastwest;whiteSpace=wrap;html=1;" parent="NBHjp8xVbYWv-o9BaZYt-52" vertex="1">
          <mxGeometry y="34" width="130" height="26" as="geometry" />
        </mxCell>
        <mxCell id="NBHjp8xVbYWv-o9BaZYt-57" value="Record" style="swimlane;fontStyle=1;align=center;verticalAlign=top;childLayout=stackLayout;horizontal=1;startSize=26;horizontalStack=0;resizeParent=1;resizeParentMax=0;resizeLast=0;collapsible=1;marginBottom=0;whiteSpace=wrap;html=1;" parent="1" vertex="1">
          <mxGeometry x="40" y="360" width="370" height="360" as="geometry" />
        </mxCell>
        <mxCell id="NBHjp8xVbYWv-o9BaZYt-58" value="- name: str&lt;div&gt;&lt;div&gt;- birthday: str&lt;/div&gt;&lt;/div&gt;&lt;div&gt;- phones: list&lt;/div&gt;&lt;div&gt;- note: dict&lt;/div&gt;&lt;div&gt;- addres: str&lt;/div&gt;&lt;div&gt;&lt;span style=&quot;background-color: initial;&quot;&gt;- email: dtr&lt;/span&gt;&lt;/div&gt;" style="text;strokeColor=none;fillColor=none;align=left;verticalAlign=top;spacingLeft=4;spacingRight=4;overflow=hidden;rotatable=0;points=[[0,0.5],[1,0.5]];portConstraint=eastwest;whiteSpace=wrap;html=1;" parent="NBHjp8xVbYWv-o9BaZYt-57" vertex="1">
          <mxGeometry y="26" width="370" height="94" as="geometry" />
        </mxCell>
        <mxCell id="NBHjp8xVbYWv-o9BaZYt-59" value="" style="line;strokeWidth=1;fillColor=none;align=left;verticalAlign=middle;spacingTop=-1;spacingLeft=3;spacingRight=3;rotatable=0;labelPosition=right;points=[];portConstraint=eastwest;strokeColor=inherit;" parent="NBHjp8xVbYWv-o9BaZYt-57" vertex="1">
          <mxGeometry y="120" width="370" height="8" as="geometry" />
        </mxCell>
        <mxCell id="NBHjp8xVbYWv-o9BaZYt-60" value="+ __init__(name: str, birthday: None, address: None, email: None)&lt;div&gt;+ add_phone(phone: str)&lt;/div&gt;&lt;div&gt;+ remove_phone&lt;span style=&quot;background-color: initial;&quot;&gt;(phone:&amp;nbsp;&lt;/span&gt;str&lt;span style=&quot;background-color: initial;&quot;&gt;)&lt;/span&gt;&lt;/div&gt;&lt;div&gt;&lt;span style=&quot;background-color: initial;&quot;&gt;+ edit_phone(old_phone: str&lt;/span&gt;&lt;span style=&quot;background-color: initial;&quot;&gt;, new_phone:&amp;nbsp;&lt;/span&gt;str&lt;span style=&quot;background-color: initial;&quot;&gt;)&lt;/span&gt;&lt;/div&gt;&lt;div&gt;&lt;span style=&quot;background-color: initial;&quot;&gt;+ add_birthday(birthday: str)&lt;/span&gt;&lt;/div&gt;&lt;div&gt;&lt;span style=&quot;background-color: initial;&quot;&gt;+ remove_birthday()&lt;/span&gt;&lt;/div&gt;&lt;div&gt;&lt;span style=&quot;background-color: initial;&quot;&gt;+ add_address(address: str)&lt;/span&gt;&lt;/div&gt;&lt;div&gt;&lt;span style=&quot;background-color: initial;&quot;&gt;+ edit_address(new_address: str)&lt;/span&gt;&lt;/div&gt;&lt;div&gt;&lt;span style=&quot;background-color: initial;&quot;&gt;+ remove_address()&lt;/span&gt;&lt;/div&gt;&lt;div&gt;&lt;span style=&quot;background-color: initial;&quot;&gt;+ add_email(email: str)&lt;/span&gt;&lt;/div&gt;&lt;div&gt;&lt;span style=&quot;background-color: initial;&quot;&gt;+ days_to_birthday(): int&lt;/span&gt;&lt;br&gt;&lt;/div&gt;&lt;div&gt;&lt;span style=&quot;background-color: initial;&quot;&gt;+ add_note(tag: str, new_note: str)&lt;/span&gt;&lt;/div&gt;&lt;div&gt;&lt;span style=&quot;background-color: initial;&quot;&gt;+ remove_note(tag: str)&lt;/span&gt;&lt;/div&gt;&lt;div&gt;&lt;span style=&quot;background-color: initial;&quot;&gt;+ edit_note(tag: str, new_not: str)&lt;/span&gt;&lt;/div&gt;&lt;div&gt;&lt;span style=&quot;background-color: initial;&quot;&gt;+ __str__(): str&lt;/span&gt;&lt;/div&gt;" style="text;strokeColor=none;fillColor=none;align=left;verticalAlign=top;spacingLeft=4;spacingRight=4;overflow=hidden;rotatable=0;points=[[0,0.5],[1,0.5]];portConstraint=eastwest;whiteSpace=wrap;html=1;" parent="NBHjp8xVbYWv-o9BaZYt-57" vertex="1">
          <mxGeometry y="128" width="370" height="232" as="geometry" />
        </mxCell>
        <mxCell id="NBHjp8xVbYWv-o9BaZYt-61" value="AddressBook" style="swimlane;fontStyle=1;align=center;verticalAlign=top;childLayout=stackLayout;horizontal=1;startSize=26;horizontalStack=0;resizeParent=1;resizeParentMax=0;resizeLast=0;collapsible=1;marginBottom=0;whiteSpace=wrap;html=1;" parent="1" vertex="1">
          <mxGeometry x="40" y="740" width="300" height="200" as="geometry" />
        </mxCell>
        <mxCell id="NBHjp8xVbYWv-o9BaZYt-62" value="- data: dict" style="text;strokeColor=none;fillColor=none;align=left;verticalAlign=top;spacingLeft=4;spacingRight=4;overflow=hidden;rotatable=0;points=[[0,0.5],[1,0.5]];portConstraint=eastwest;whiteSpace=wrap;html=1;" parent="NBHjp8xVbYWv-o9BaZYt-61" vertex="1">
          <mxGeometry y="26" width="300" height="24" as="geometry" />
        </mxCell>
        <mxCell id="NBHjp8xVbYWv-o9BaZYt-63" value="" style="line;strokeWidth=1;fillColor=none;align=left;verticalAlign=middle;spacingTop=-1;spacingLeft=3;spacingRight=3;rotatable=0;labelPosition=right;points=[];portConstraint=eastwest;strokeColor=inherit;" parent="NBHjp8xVbYWv-o9BaZYt-61" vertex="1">
          <mxGeometry y="50" width="300" height="8" as="geometry" />
        </mxCell>
        <mxCell id="NBHjp8xVbYWv-o9BaZYt-64" value="+ add_record(record: dict)&lt;div&gt;+ find_records(keyword: str)&lt;/div&gt;&lt;div&gt;+ find_partial_records(keyword: str)&lt;/div&gt;&lt;div&gt;+ phone_exists(name: str, phone: str)&lt;/div&gt;&lt;div&gt;+ upcoming_birthdays(days: init)&lt;/div&gt;&lt;div&gt;+ __iter__()&lt;/div&gt;&lt;div&gt;+ __next__()&lt;/div&gt;&lt;div&gt;+ save_to_file(filename: str)&lt;/div&gt;&lt;div&gt;+ load_from_file(filename: str)&lt;/div&gt;" style="text;strokeColor=none;fillColor=none;align=left;verticalAlign=top;spacingLeft=4;spacingRight=4;overflow=hidden;rotatable=0;points=[[0,0.5],[1,0.5]];portConstraint=eastwest;whiteSpace=wrap;html=1;" parent="NBHjp8xVbYWv-o9BaZYt-61" vertex="1">
          <mxGeometry y="58" width="300" height="142" as="geometry" />
        </mxCell>
        <mxCell id="NKfIfb6AsecimU8zRZBv-1" value="Address" style="swimlane;fontStyle=1;align=center;verticalAlign=top;childLayout=stackLayout;horizontal=1;startSize=26;horizontalStack=0;resizeParent=1;resizeParentMax=0;resizeLast=0;collapsible=1;marginBottom=0;whiteSpace=wrap;html=1;" parent="1" vertex="1">
          <mxGeometry x="340" y="240" width="150" height="60" as="geometry" />
        </mxCell>
        <mxCell id="NKfIfb6AsecimU8zRZBv-2" value="" style="line;strokeWidth=1;fillColor=none;align=left;verticalAlign=middle;spacingTop=-1;spacingLeft=3;spacingRight=3;rotatable=0;labelPosition=right;points=[];portConstraint=eastwest;strokeColor=inherit;" parent="NKfIfb6AsecimU8zRZBv-1" vertex="1">
          <mxGeometry y="26" width="150" height="8" as="geometry" />
        </mxCell>
        <mxCell id="NKfIfb6AsecimU8zRZBv-3" value="+__init__(value: None)" style="text;strokeColor=none;fillColor=none;align=left;verticalAlign=top;spacingLeft=4;spacingRight=4;overflow=hidden;rotatable=0;points=[[0,0.5],[1,0.5]];portConstraint=eastwest;whiteSpace=wrap;html=1;" parent="NKfIfb6AsecimU8zRZBv-1" vertex="1">
          <mxGeometry y="34" width="150" height="26" as="geometry" />
        </mxCell>
        <mxCell id="NKfIfb6AsecimU8zRZBv-4" value="Email" style="swimlane;fontStyle=1;align=center;verticalAlign=top;childLayout=stackLayout;horizontal=1;startSize=26;horizontalStack=0;resizeParent=1;resizeParentMax=0;resizeLast=0;collapsible=1;marginBottom=0;whiteSpace=wrap;html=1;" parent="1" vertex="1">
          <mxGeometry x="510" y="240" width="150" height="60" as="geometry" />
        </mxCell>
        <mxCell id="NKfIfb6AsecimU8zRZBv-5" value="" style="line;strokeWidth=1;fillColor=none;align=left;verticalAlign=middle;spacingTop=-1;spacingLeft=3;spacingRight=3;rotatable=0;labelPosition=right;points=[];portConstraint=eastwest;strokeColor=inherit;" parent="NKfIfb6AsecimU8zRZBv-4" vertex="1">
          <mxGeometry y="26" width="150" height="8" as="geometry" />
        </mxCell>
        <mxCell id="NKfIfb6AsecimU8zRZBv-6" value="+__init__(email: str)" style="text;strokeColor=none;fillColor=none;align=left;verticalAlign=top;spacingLeft=4;spacingRight=4;overflow=hidden;rotatable=0;points=[[0,0.5],[1,0.5]];portConstraint=eastwest;whiteSpace=wrap;html=1;" parent="NKfIfb6AsecimU8zRZBv-4" vertex="1">
          <mxGeometry y="34" width="150" height="26" as="geometry" />
        </mxCell>
        <mxCell id="NKfIfb6AsecimU8zRZBv-8" value="Tag" style="swimlane;fontStyle=1;align=center;verticalAlign=top;childLayout=stackLayout;horizontal=1;startSize=26;horizontalStack=0;resizeParent=1;resizeParentMax=0;resizeLast=0;collapsible=1;marginBottom=0;whiteSpace=wrap;html=1;" parent="1" vertex="1">
          <mxGeometry x="680" y="240" width="140" height="60" as="geometry" />
        </mxCell>
        <mxCell id="NKfIfb6AsecimU8zRZBv-9" value="" style="line;strokeWidth=1;fillColor=none;align=left;verticalAlign=middle;spacingTop=-1;spacingLeft=3;spacingRight=3;rotatable=0;labelPosition=right;points=[];portConstraint=eastwest;strokeColor=inherit;" parent="NKfIfb6AsecimU8zRZBv-8" vertex="1">
          <mxGeometry y="26" width="140" height="8" as="geometry" />
        </mxCell>
        <mxCell id="NKfIfb6AsecimU8zRZBv-10" value="+__init__(value: None)" style="text;strokeColor=none;fillColor=none;align=left;verticalAlign=top;spacingLeft=4;spacingRight=4;overflow=hidden;rotatable=0;points=[[0,0.5],[1,0.5]];portConstraint=eastwest;whiteSpace=wrap;html=1;" parent="NKfIfb6AsecimU8zRZBv-8" vertex="1">
          <mxGeometry y="34" width="140" height="26" as="geometry" />
        </mxCell>
        <mxCell id="NKfIfb6AsecimU8zRZBv-12" value="Note" style="swimlane;fontStyle=1;align=center;verticalAlign=top;childLayout=stackLayout;horizontal=1;startSize=26;horizontalStack=0;resizeParent=1;resizeParentMax=0;resizeLast=0;collapsible=1;marginBottom=0;whiteSpace=wrap;html=1;" parent="1" vertex="1">
          <mxGeometry x="680" y="140" width="140" height="60" as="geometry" />
        </mxCell>
        <mxCell id="NKfIfb6AsecimU8zRZBv-13" value="" style="line;strokeWidth=1;fillColor=none;align=left;verticalAlign=middle;spacingTop=-1;spacingLeft=3;spacingRight=3;rotatable=0;labelPosition=right;points=[];portConstraint=eastwest;strokeColor=inherit;" parent="NKfIfb6AsecimU8zRZBv-12" vertex="1">
          <mxGeometry y="26" width="140" height="8" as="geometry" />
        </mxCell>
        <mxCell id="NKfIfb6AsecimU8zRZBv-14" value="+__init__(value: None)" style="text;strokeColor=none;fillColor=none;align=left;verticalAlign=top;spacingLeft=4;spacingRight=4;overflow=hidden;rotatable=0;points=[[0,0.5],[1,0.5]];portConstraint=eastwest;whiteSpace=wrap;html=1;" parent="NKfIfb6AsecimU8zRZBv-12" vertex="1">
          <mxGeometry y="34" width="140" height="26" as="geometry" />
        </mxCell>
        <mxCell id="NKfIfb6AsecimU8zRZBv-15" value="" style="endArrow=open;endFill=1;endSize=12;html=1;rounded=0;exitX=0.453;exitY=-0.002;exitDx=0;exitDy=0;exitPerimeter=0;" parent="1" source="NBHjp8xVbYWv-o9BaZYt-52" edge="1">
          <mxGeometry width="160" relative="1" as="geometry">
            <mxPoint x="250" y="238" as="sourcePoint" />
            <mxPoint x="360" y="160" as="targetPoint" />
          </mxGeometry>
        </mxCell>
        <mxCell id="NKfIfb6AsecimU8zRZBv-16" value="" style="endArrow=open;endFill=1;endSize=12;html=1;rounded=0;entryX=0.506;entryY=0.997;entryDx=0;entryDy=0;entryPerimeter=0;" parent="1" target="NBHjp8xVbYWv-o9BaZYt-12" edge="1">
          <mxGeometry width="160" relative="1" as="geometry">
            <mxPoint x="410" y="240" as="sourcePoint" />
            <mxPoint x="523" y="166" as="targetPoint" />
          </mxGeometry>
        </mxCell>
        <mxCell id="NKfIfb6AsecimU8zRZBv-17" value="" style="endArrow=open;endFill=1;endSize=12;html=1;rounded=0;entryX=0.001;entryY=0.249;entryDx=0;entryDy=0;entryPerimeter=0;" parent="1" target="NBHjp8xVbYWv-o9BaZYt-12" edge="1">
          <mxGeometry width="160" relative="1" as="geometry">
            <mxPoint x="160" y="168" as="sourcePoint" />
            <mxPoint x="356.26" y="90" as="targetPoint" />
          </mxGeometry>
        </mxCell>
        <mxCell id="NKfIfb6AsecimU8zRZBv-18" value="" style="endArrow=open;endFill=1;endSize=12;html=1;rounded=0;entryX=0.748;entryY=0.987;entryDx=0;entryDy=0;entryPerimeter=0;" parent="1" target="NBHjp8xVbYWv-o9BaZYt-12" edge="1">
          <mxGeometry width="160" relative="1" as="geometry">
            <mxPoint x="589" y="240" as="sourcePoint" />
            <mxPoint x="580" y="160" as="targetPoint" />
          </mxGeometry>
        </mxCell>
        <mxCell id="NKfIfb6AsecimU8zRZBv-19" value="" style="endArrow=open;endFill=1;endSize=12;html=1;rounded=0;entryX=1.001;entryY=1;entryDx=0;entryDy=0;entryPerimeter=0;" parent="1" target="NBHjp8xVbYWv-o9BaZYt-12" edge="1">
          <mxGeometry width="160" relative="1" as="geometry">
            <mxPoint x="719" y="240" as="sourcePoint" />
            <mxPoint x="710" y="160" as="targetPoint" />
          </mxGeometry>
        </mxCell>
        <mxCell id="NKfIfb6AsecimU8zRZBv-20" value="" style="endArrow=open;endFill=1;endSize=12;html=1;rounded=0;entryX=1.004;entryY=0.25;entryDx=0;entryDy=0;entryPerimeter=0;" parent="1" target="NBHjp8xVbYWv-o9BaZYt-12" edge="1">
          <mxGeometry width="160" relative="1" as="geometry">
            <mxPoint x="680" y="170" as="sourcePoint" />
            <mxPoint x="671" y="90" as="targetPoint" />
          </mxGeometry>
        </mxCell>
        <mxCell id="w7kFkpmQ4zuxw926lztf-1" value="CleanFolder" style="swimlane;fontStyle=1;align=center;verticalAlign=top;childLayout=stackLayout;horizontal=1;startSize=26;horizontalStack=0;resizeParent=1;resizeParentMax=0;resizeLast=0;collapsible=1;marginBottom=0;whiteSpace=wrap;html=1;" vertex="1" parent="1">
          <mxGeometry x="400" y="740" width="410" height="230" as="geometry" />
        </mxCell>
        <mxCell id="w7kFkpmQ4zuxw926lztf-2" value="- path: str&lt;div&gt;- all_existing_extentions: set&lt;/div&gt;&lt;div&gt;- unrecognized_extensions: set&lt;/div&gt;" style="text;strokeColor=none;fillColor=none;align=left;verticalAlign=top;spacingLeft=4;spacingRight=4;overflow=hidden;rotatable=0;points=[[0,0.5],[1,0.5]];portConstraint=eastwest;whiteSpace=wrap;html=1;" vertex="1" parent="w7kFkpmQ4zuxw926lztf-1">
          <mxGeometry y="26" width="410" height="54" as="geometry" />
        </mxCell>
        <mxCell id="w7kFkpmQ4zuxw926lztf-3" value="" style="line;strokeWidth=1;fillColor=none;align=left;verticalAlign=middle;spacingTop=-1;spacingLeft=3;spacingRight=3;rotatable=0;labelPosition=right;points=[];portConstraint=eastwest;strokeColor=inherit;" vertex="1" parent="w7kFkpmQ4zuxw926lztf-1">
          <mxGeometry y="80" width="410" height="8" as="geometry" />
        </mxCell>
        <mxCell id="w7kFkpmQ4zuxw926lztf-4" value="+ __init__(path: str)&lt;div&gt;+ normalize(some_string: str)&lt;br&gt;&lt;/div&gt;&lt;div&gt;+ move_and_normalize_files(file_path: str, new_folder_name: str)&lt;/div&gt;&lt;div&gt;+ archive_folder_and_move(path:str,&amp;nbsp;&lt;span style=&quot;background-color: initial;&quot;&gt;file_path: str, new_folder_name: str)&lt;/span&gt;&lt;/div&gt;&lt;div&gt;&lt;span style=&quot;background-color: initial;&quot;&gt;+ process_folder()&lt;/span&gt;&lt;/div&gt;" style="text;strokeColor=none;fillColor=none;align=left;verticalAlign=top;spacingLeft=4;spacingRight=4;overflow=hidden;rotatable=0;points=[[0,0.5],[1,0.5]];portConstraint=eastwest;whiteSpace=wrap;html=1;" vertex="1" parent="w7kFkpmQ4zuxw926lztf-1">
          <mxGeometry y="88" width="410" height="142" as="geometry" />
        </mxCell>
      </root>
    </mxGraphModel>
  </diagram>
</mxfile>
